:SAMPLES-PER-SECOND 30
:FULLY-SPECIFIED
:DEGREES
1064
root  72.9496 40.0671 -7.98581 -147.262 -76.8429 157.584
RightUpLeg  -22.3364 -11.7645 -6.49571
RightLeg  5.47806 -11.9701 6.40139
RightFoot  6.55947 0.450623 -2.57344
RightToes  -1.16417e-010 0 -3.6325e-017
Spine  32.2607 -5.97171 3.52119
Spine1  3.93714 -5.25763 -1.80674
HEad  -39.1494 15.6805 -16.8595
LeftShoulder1  11.5301 -19.4165 -43.7475
LeftArm  8.39494 -44.5833 -44.7161
LeftForeArm  -2.62677 -29.6016 -6.58086
LeftHand  -0.244104 0.0205437 5.32207
RightShoulder  6.313 13.1395 31.9725
RightArm  -5.98534 28.4715 40.4696
RightForeArm  -56.7438 46.5559 14.4151
RightHand  -0.997637 1.10664 -17.6515
LeftUpLeg  -12.8793 9.19422 6.90903
LeftLeg  0.149573 28.5379 -7.13053
LeftFoot  9.39863 0.932801 -5.40973
LeftToes  -2.09216e-011 1.96776e-011 -5.83545e-012
1065
root  72.9879 40.0832 -8.24734 -144.917 -77.7536 154.602
RightUpLeg  -21.8365 -11.8567 -6.54487
RightLeg  6.2325 -12.8669 6.10457
RightFoot  6.00753 0.532212 -3.21552
RightToes  -1.16417e-010 0 -3.6325e-017
Spine  32.4299 -5.54662 4.22839
Spine1  2.82323 -4.54804 -2.15753
HEad  -37.2991 13.9415 -16.3599
LeftShoulder1  11.3383 -19.1098 -43.5995
LeftArm  -4.80941 -47.7777 -41.3191
LeftForeArm  1.8783 -36.5739 -8.2288
LeftHand  -0.244104 0.0205437 5.32207
RightShoulder  6.01089 12.9428 30.5786
RightArm  -6.79968 36.5928 40.9479
RightForeArm  -51.3091 48.6109 15.3039
RightHand  -0.375208 -2.19936 -13.3536
LeftUpLeg  -12.2735 9.14425 7.16027
LeftLeg  -0.30231 27.2129 -7.24983
LeftFoot  10.6844 1.08228 -5.89435
LeftToes  -2.09216e-011 1.96776e-011 -5.83545e-012
1066
root  73.0152 40.0842 -8.47271 -142.692 -78.517 152.018
RightUpLeg  -21.5875 -11.9157 -6.51335
RightLeg  6.87299 -13.6746 5.87904
RightFoot  5.46166 0.581609 -3.68089
RightToes  -1.16417e-010 0 -3.6325e-017
Spine  32.458 -5.16076 5.18195
Spine1  1.81975 -3.72654 -2.9135
HEad  -36.1187 12.3216 -16.0016
LeftShoulder1  11.2578 -18.8268 -43.8541
LeftArm  -17.3096 -51.1083 -38.579
LeftForeArm  7.14989 -44.6826 -10.6081
LeftHand  -0.244104 0.0205437 5.32207
RightShoulder  5.64476 12.8836 28.4366
RightArm  -8.77736 44.1107 42.1962
RightForeArm  -46.1452 49.9994 15.9042
RightHand  -0.194565 -3.15677 -10.0955
LeftUpLeg  -12.0316 9.2011 7.43741
LeftLeg  -0.43289 25.9075 -7.26287
LeftFoot  11.588 1.24525 -6.4868
LeftToes  -2.09216e-011 1.96776e-011 -5.83545e-012
1067
root  73.0205 40.0768 -8.66392 -140.35 -79.3762 149.43
RightUpLeg  -21.3686 -12.0325 -6.44814
RightLeg  7.4349 -14.4755 5.74532
RightFoot  4.89072 0.606293 -4.01253
RightToes  -1.16417e-010 0 -3.6325e-017
Spine  32.0003 -4.90127 6.5781
Spine1  1.55722 -2.78796 -4.36844
HEad  -35.4952 10.6662 -15.1405
LeftShoulder1  11.1453 -18.8159 -43.4143
LeftArm  -28.126 -54.9374 -37.2402
LeftForeArm  13.1559 -51.9415 -13.3498
LeftHand  -0.244104 0.0205437 5.32207
RightShoulder  5.22591 12.8224 25.9129
RightArm  -11.641 50.5412 43.733
RightForeArm  -43.0491 51.7508 16.8008
RightHand  -0.468425 -0.889089 -11.6874
LeftUpLeg  -12.0401 9.25459 7.70221
LeftLeg  -0.280262 24.5116 -7.06561
LeftFoot  12.1686 1.3843 -7.00649
LeftToes  -2.09216e-011 1.96776e-011 -5.83545e-012
1068
root  73.0139 40.0678 -8.83674 -137.372 -80.4402 146.153
RightUpLeg  -21.0454 -12.2077 -6.35925
RightLeg  8.00123 -15.3668 5.59947
RightFoot  4.3362 0.62314 -4.30601
RightToes  -1.16417e-010 0 -3.6325e-017
Spine  31.3322 -4.6551 8.04062
Spine1  1.79109 -1.84045 -5.9206
HEad  -35.1904 9.19902 -13.7504
LeftShoulder1  10.8448 -18.9925 -41.8066
LeftArm  -36.4963 -58.842 -36.4815
LeftForeArm  19.502 -57.1848 -15.8629
LeftHand  -0.244104 0.0205437 5.32207
RightShoulder  4.77174 12.4044 23.8062
RightArm  -14.1309 56.169 45.0567
RightForeArm  -44.0349 54.0446 18.2444
RightHand  -1.08009 1.64514 -17.8018
LeftUpLeg  -12.1125 9.34793 7.96473
LeftLeg  0.00620661 22.9343 -6.77273
LeftFoot  12.6274 1.48054 -7.33394
LeftToes  -2.09216e-011 1.96776e-011 -5.83545e-012
1069
root  73.0035 40.0617 -9.00065 -133.124 -81.6675 141.56
RightUpLeg  -20.6332 -12.3368 -6.23899
RightLeg  8.55159 -16.4645 5.35129
RightFoot  3.83079 0.635616 -4.57037
RightToes  -1.16417e-010 0 -3.6325e-017
Spine  30.9302 -4.35619 9.01835
Spine1  1.72089 -1.13058 -6.73812
HEad  -34.87 8.41903 -12.3332
LeftShoulder1  10.3608 -19.0097 -39.7444
LeftArm  -42.6836 -61.727 -34.1531
LeftForeArm  25.0886 -60.4057 -17.6882
LeftHand  -0.244104 0.0205437 5.32207
RightShoulder  4.35553 11.7071 22.375
RightArm  -14.9787 60.9457 46.4789
RightForeArm  -46.6739 55.5802 19.3706
RightHand  -1.85458 3.56431 -24.0151
LeftUpLeg  -12.1706 9.52207 8.25081
LeftLeg  0.245959 21.2428 -6.5541
LeftFoot  13.1007 1.55948 -7.56468
LeftToes  -2.09216e-011 1.96776e-011 -5.83545e-012
